<svg width="166" height="32" viewBox="0 0 166 32" fill="none" xmlns="http://www.w3.org/2000/svg">
<path d="M131.265 12.0552H145.29V25.8785H131.265V12.0552Z" fill="#121212"/>
<path d="M145.29 0H157.52V12.0552H145.29V0Z" fill="#121212"/>
<path d="M157.52 12.0552H166V20.3331H157.52V12.0552Z" fill="#121212"/>
<path d="M151.976 20.3331H157.52V25.8785H151.976V20.3331Z" fill="#121212"/>
<path d="M1.4794 19.7095V17.5222H5.60059C6.6573 17.5222 7.52028 17.3052 8.18953 16.8712C8.85879 16.4198 9.35192 15.8296 9.66893 15.1005C9.98595 14.3541 10.1445 13.5295 10.1445 12.6268C10.1445 11.429 9.82744 10.5957 9.19341 10.127C8.55938 9.64095 7.71401 9.39792 6.6573 9.39792H1.4794V7.21062H6.76297C8.55938 7.21062 10.0124 7.66197 11.1219 8.56466C12.2315 9.45 12.7862 10.804 12.7862 12.6268C12.7862 13.4774 12.6453 14.328 12.3636 15.1786C12.0994 16.0119 11.6767 16.7757 11.0955 17.4701C10.5143 18.1471 9.7658 18.6939 8.84998 19.1106C7.95177 19.5098 6.86864 19.7095 5.60059 19.7095H1.4794ZM0 25.9589V7.21062H2.53611V25.9589H0Z" fill="#121212"/>
<path d="M21.882 26.1672C20.5435 26.1672 19.3723 26.011 18.3685 25.6985C17.3822 25.3687 16.5544 24.8913 15.8852 24.2663C15.2335 23.6414 14.7492 22.8776 14.4322 21.9749C14.1152 21.0548 13.9567 20.0046 13.9567 18.8241C13.9567 17.3486 14.2297 16.064 14.7756 14.9703C15.3392 13.8593 16.1141 13 17.1004 12.3924C18.1043 11.7849 19.2755 11.4811 20.614 11.4811C22.1638 11.4811 23.4143 11.7935 24.3653 12.4185C25.3164 13.0434 25.9944 13.9201 26.3995 15.0484C26.8222 16.1768 27.0071 17.4875 26.9543 18.9804L26.9278 19.7095H15.6474V17.7305H24.4181V17.5222C24.4181 16.2202 24.1011 15.2394 23.4671 14.5797C22.8331 13.9027 21.882 13.5642 20.614 13.5642C19.8743 13.5642 19.1874 13.7204 18.5534 14.0329C17.9194 14.3454 17.4086 14.8748 17.0211 15.6213C16.6337 16.3678 16.44 17.3833 16.44 18.6679V18.8241C16.44 20.1608 16.6777 21.2111 17.1532 21.9749C17.6288 22.7387 18.2804 23.2855 19.1082 23.6154C19.9535 23.9278 20.9134 24.0841 21.9877 24.0841C22.8859 24.0841 23.652 23.9973 24.2861 23.8237C24.9201 23.6501 25.422 23.4591 25.7919 23.2508H26.0032V25.386C25.5805 25.5943 25.0258 25.7766 24.3389 25.9329C23.652 26.0891 22.8331 26.1672 21.882 26.1672Z" fill="#121212"/>
<path d="M29.8253 25.9589V17.0014C29.8253 16.6542 29.8165 16.2028 29.7989 15.6473C29.7989 15.0918 29.7813 14.545 29.7461 14.0069C29.7285 13.4687 29.6844 13.0434 29.614 12.7309L29.6668 12.5226C30.1247 12.349 30.6883 12.2015 31.3576 12.08C32.0444 11.9584 32.7225 11.863 33.3918 11.7935C34.0786 11.7241 34.651 11.6894 35.1089 11.6894C35.5316 11.6894 35.875 11.6981 36.1392 11.7154C36.4034 11.7328 36.6235 11.7588 36.7997 11.7935V13.8767H36.5883C36.3594 13.842 36.0864 13.8159 35.7694 13.7986C35.4523 13.7812 35.1617 13.7725 34.8976 13.7725C34.3516 13.7725 33.7792 13.8159 33.1804 13.9027C32.5816 13.9895 32.0621 14.0763 31.6218 14.1631L32.0973 13.5121C32.2029 14.085 32.2558 14.7967 32.2558 15.6473V25.9589H29.8253Z" fill="#121212"/>
<path d="M37.7451 23.1467H37.9565C38.5905 23.4244 39.3038 23.6501 40.0963 23.8237C40.9065 23.9973 41.7078 24.0841 42.5003 24.0841C42.7469 24.0841 43.0727 24.0754 43.4778 24.058C43.9005 24.0233 44.3232 23.9452 44.7459 23.8237C45.1862 23.7022 45.556 23.4938 45.8554 23.1987C46.1548 22.8863 46.3045 22.4523 46.3045 21.8968C46.3045 21.2718 46.0491 20.8292 45.5384 20.5688C45.0276 20.3084 44.3232 20.1087 43.425 19.9699L42.1569 19.7615C40.6599 19.5185 39.5503 19.1019 38.8283 18.5117C38.1062 17.9041 37.7451 17.0535 37.7451 15.9598C37.7451 15.196 37.9477 14.4843 38.3527 13.8246C38.7754 13.1476 39.4447 12.6094 40.3605 12.2102C41.2939 11.7935 42.5356 11.5852 44.0854 11.5852C44.7723 11.5852 45.4327 11.646 46.0667 11.7675C46.7184 11.8717 47.2556 12.0018 47.6782 12.1581V14.2933H47.4669C46.8857 14.085 46.3309 13.9288 45.8026 13.8246C45.2742 13.7204 44.6666 13.6684 43.9797 13.6684C42.7645 13.6684 41.8047 13.842 41.1002 14.1891C40.4133 14.519 40.0699 15.0832 40.0699 15.8817C40.0699 16.4893 40.3165 16.9233 40.8096 17.1837C41.3203 17.4441 42.0248 17.6437 42.923 17.7826L44.1911 17.9909C45.0012 18.1124 45.7409 18.3294 46.4102 18.6419C47.0794 18.9543 47.6166 19.3796 48.0217 19.9178C48.4267 20.4386 48.6293 21.0982 48.6293 21.8968C48.6293 23.3029 48.1185 24.3705 47.097 25.0996C46.0756 25.8113 44.5081 26.1672 42.3947 26.1672C41.4965 26.1672 40.6511 26.0978 39.8586 25.9589C39.0836 25.82 38.3792 25.6464 37.7451 25.4381V23.1467Z" fill="#121212"/>
<path d="M51.0597 32V16.8972C51.0597 16.5848 51.0509 16.1594 51.0333 15.6213C51.0333 15.0832 51.0157 14.545 50.9805 14.0069C50.9629 13.4687 50.9188 13.0434 50.8484 12.7309L50.9012 12.5226C51.6761 12.2102 52.5303 11.9584 53.4637 11.7675C54.4148 11.5765 55.3394 11.4811 56.2376 11.4811C57.3472 11.4811 58.3422 11.646 59.2228 11.9758C60.121 12.3056 60.8872 12.7917 61.5212 13.434C62.1552 14.059 62.6395 14.8228 62.9742 15.7255C63.3088 16.6282 63.4761 17.661 63.4761 18.8241C63.4761 19.9872 63.3 21.0288 62.9478 21.9488C62.5955 22.8689 62.0936 23.6501 61.4419 24.2924C60.7903 24.9347 59.9978 25.4294 59.0643 25.7766C58.1309 26.1064 57.083 26.2714 55.9206 26.2714C55.3746 26.2714 54.8287 26.2106 54.2827 26.0891C53.7543 25.9849 53.3317 25.8981 53.0146 25.8287L53.1731 23.6935C53.3845 23.815 53.7015 23.9278 54.1242 24.032C54.5645 24.1361 55.1633 24.1882 55.9206 24.1882C57.6114 24.1882 58.8794 23.7282 59.7248 22.8081C60.5702 21.8881 60.9928 20.5601 60.9928 18.8241C60.9928 17.0708 60.5613 15.7602 59.6984 14.8922C58.8354 14.0069 57.6113 13.5642 56.0263 13.5642C55.4275 13.5642 54.8463 13.6336 54.2827 13.7725C53.7367 13.894 53.2876 14.0503 52.9354 14.2412L53.3317 13.5121C53.3845 13.7725 53.4197 14.0937 53.4373 14.4756C53.4725 14.8575 53.4902 15.2481 53.4902 15.6473V32H51.0597Z" fill="#121212"/>
<path d="M73.1997 26.1672C71.8612 26.1672 70.69 26.011 69.6862 25.6985C68.6999 25.3687 67.8721 24.8913 67.2029 24.2663C66.5512 23.6414 66.0669 22.8776 65.7499 21.9749C65.4329 21.0548 65.2744 20.0046 65.2744 18.8241C65.2744 17.3486 65.5474 16.064 66.0933 14.9703C66.6569 13.8593 67.4318 13 68.4181 12.3924C69.422 11.7849 70.5932 11.4811 71.9317 11.4811C73.4815 11.4811 74.732 11.7935 75.683 12.4185C76.6341 13.0434 77.3121 13.9201 77.7172 15.0484C78.1399 16.1768 78.3248 17.4875 78.272 18.9804L78.2456 19.7095H66.9651V17.7305H75.7359V17.5222C75.7359 16.2202 75.4188 15.2394 74.7848 14.5797C74.1508 13.9027 73.1997 13.5642 71.9317 13.5642C71.192 13.5642 70.5051 13.7204 69.8711 14.0329C69.2371 14.3454 68.7263 14.8748 68.3389 15.6213C67.9514 16.3678 67.7577 17.3833 67.7577 18.6679V18.8241C67.7577 20.1608 67.9954 21.2111 68.4709 21.9749C68.9465 22.7387 69.5981 23.2855 70.4259 23.6154C71.2712 23.9278 72.2311 24.0841 73.3054 24.0841C74.2036 24.0841 74.9697 23.9973 75.6038 23.8237C76.2378 23.6501 76.7397 23.4591 77.1096 23.2508H77.3209V25.386C76.8982 25.5943 76.3435 25.7766 75.6566 25.9329C74.9697 26.0891 74.1508 26.1672 73.1997 26.1672Z" fill="#121212"/>
<path d="M80.0839 18.8241C80.0839 17.2791 80.3921 15.9598 81.0085 14.8662C81.6425 13.7725 82.5319 12.9393 83.6767 12.3664C84.8391 11.7762 86.2128 11.4811 87.7979 11.4811C89.1012 11.4811 90.1931 11.672 91.0737 12.0539V14.1891H90.8624C90.4925 13.9982 90.0434 13.8506 89.515 13.7465C89.0043 13.625 88.4319 13.5642 87.7979 13.5642C86.2128 13.5642 84.9447 14.0069 83.9937 14.8922C83.0427 15.7602 82.5671 17.0708 82.5671 18.8241C82.5671 20.5601 83.0427 21.8707 83.9937 22.7561C84.9447 23.6414 86.2128 24.0841 87.7979 24.0841C88.4319 24.0841 89.0043 24.0233 89.515 23.9018C90.0434 23.7803 90.4925 23.6327 90.8624 23.4591H91.0737V25.5943C90.1931 25.9763 89.1012 26.1672 87.7979 26.1672C86.1776 26.1672 84.7862 25.8808 83.6239 25.3079C82.4791 24.7177 81.5985 23.8757 80.9821 22.7821C80.3833 21.6885 80.0839 20.3691 80.0839 18.8241Z" fill="#121212"/>
<path d="M99.198 26.1672C97.9652 26.1672 96.9789 25.9763 96.2392 25.5943C95.4995 25.1951 94.9623 24.6483 94.6277 23.9539C94.2931 23.2421 94.1258 22.4176 94.1258 21.4801V7.93972H96.5562V21.2718C96.5562 22.2613 96.7764 22.9817 97.2167 23.4331C97.657 23.8671 98.3526 24.0841 99.3037 24.0841C99.6735 24.0841 100.035 24.0493 100.387 23.9799C100.739 23.8931 101.047 23.789 101.311 23.6674H101.523V25.6985C101.259 25.82 100.924 25.9242 100.519 26.011C100.114 26.1151 99.6735 26.1672 99.198 26.1672ZM91.9067 13.8767V11.7935H100.677V13.8767H91.9067Z" fill="#121212"/>
<path d="M104.754 9.29376C104.313 9.29376 103.935 9.15489 103.618 8.87714C103.318 8.58203 103.169 8.20012 103.169 7.73141C103.169 7.2627 103.318 6.88947 103.618 6.61172C103.935 6.31661 104.313 6.16905 104.754 6.16905C105.212 6.16905 105.59 6.31661 105.89 6.61172C106.189 6.88947 106.339 7.2627 106.339 7.73141C106.339 8.20012 106.189 8.58203 105.89 8.87714C105.59 9.15489 105.212 9.29376 104.754 9.29376ZM103.538 25.9589V16.2723C103.538 15.9251 103.53 15.4738 103.512 14.9182C103.512 14.3627 103.494 13.8159 103.459 13.2778C103.442 12.7396 103.397 12.3143 103.327 12.0018L103.38 11.7935H105.969V25.9589H103.538Z" fill="#121212"/>
<path d="M112.842 25.9589L107.77 12.106V11.7935H110.306L114.85 24.7611H114.19L118.865 11.7935H121.296V12.106L116.012 25.9589H112.842Z" fill="#121212"/>
</svg>
