<?xml version="1.0" encoding="UTF-8"?>
<svg version="1.1" xmlns="http://www.w3.org/2000/svg" width="399" height="399">
<path d="M0 0 C131.67 0 263.34 0 399 0 C399 131.67 399 263.34 399 399 C267.33 399 135.66 399 0 399 C0 267.33 0 135.66 0 0 Z " fill="#FEFEFE" transform="translate(0,0)"/>
<path d="M0 0 C46.86 0 93.72 0 142 0 C142 46.86 142 93.72 142 142 C95.14 142 48.28 142 0 142 C0 95.14 0 48.28 0 0 Z " fill="#131313" transform="translate(24,191)"/>
<path d="M0 0 C40.59 0 81.18 0 123 0 C123 40.59 123 81.18 123 123 C82.41 123 41.82 123 0 123 C0 82.41 0 41.82 0 0 Z " fill="#121212" transform="translate(166,68)"/>
<path d="M0 0 C28.38 0 56.76 0 86 0 C86 28.05 86 56.1 86 85 C57.62 85 29.24 85 0 85 C0 56.95 0 28.9 0 0 Z " fill="#131313" transform="translate(289,191)"/>
<path d="M0 0 C18.48 0 36.96 0 56 0 C56 18.81 56 37.62 56 57 C37.52 57 19.04 57 0 57 C0 38.19 0 19.38 0 0 Z " fill="#141414" transform="translate(233,276)"/>
<path d="M0 0 C1.3668393 2.7336786 2.58357269 5.37886582 3.75 8.1875 C10.21399603 22.6308611 19.5895133 29.94257989 34 36 C35.32 36.66 36.64 37.32 38 38 C25.46 38 12.92 38 0 38 C0 25.46 0 12.92 0 0 Z " fill="#47704C" transform="translate(0,361)"/>
<path d="M0 0 C12.54 0 25.08 0 38 0 C35.2663214 1.3668393 32.62113418 2.58357269 29.8125 3.75 C15.3691389 10.21399603 8.05742011 19.5895133 2 34 C1.34 35.32 0.68 36.64 0 38 C0 25.46 0 12.92 0 0 Z " fill="#47704C" transform="translate(0,0)"/>
<path d="M0 0 C0.33 0 0.66 0 1 0 C1 12.54 1 25.08 1 38 C-11.54 38 -24.08 38 -37 38 C-34.2663214 36.6331607 -31.62113418 35.41642731 -28.8125 34.25 C-14.62215609 27.89923953 -6.59220033 18.45458008 -1 4 C-0.63361251 2.67536832 -0.28329843 1.34485348 0 0 Z " fill="#47704C" transform="translate(398,361)"/>
<path d="M0 0 C12.54 0 25.08 0 38 0 C38 12.54 38 25.08 38 38 C36.6331607 35.2663214 35.41642731 32.62113418 34.25 29.8125 C27.78600397 15.3691389 18.4104867 8.05742011 4 2 C2.68 1.34 1.36 0.68 0 0 Z " fill="#47704C" transform="translate(361,0)"/>
</svg>
