<svg width="28" height="28" viewBox="0 0 28 28" fill="none" xmlns="http://www.w3.org/2000/svg">
<path d="M3.01692 20.3163C2.5793 20.7538 2.33338 21.3472 2.33325 21.966V24.5C2.33325 24.8094 2.45617 25.1061 2.67496 25.3249C2.89375 25.5437 3.1905 25.6666 3.49992 25.6666H6.99992C7.30934 25.6666 7.60608 25.5437 7.82488 25.3249C8.04367 25.1061 8.16659 24.8094 8.16659 24.5V23.3333C8.16659 23.0239 8.2895 22.7271 8.50829 22.5084C8.72709 22.2896 9.02383 22.1666 9.33325 22.1666H10.4999C10.8093 22.1666 11.1061 22.0437 11.3249 21.8249C11.5437 21.6061 11.6666 21.3094 11.6666 21V19.8333C11.6666 19.5239 11.7895 19.2271 12.0083 19.0084C12.2271 18.7896 12.5238 18.6666 12.8333 18.6666H13.0339C13.6527 18.6665 14.2461 18.4206 14.6836 17.983L15.6333 17.0333C17.2547 17.5982 19.0199 17.596 20.64 17.0272C22.2601 16.4584 23.6392 15.3566 24.5517 13.9021C25.4642 12.4476 25.8561 10.7265 25.6632 9.02034C25.4704 7.31417 24.7042 5.72394 23.4901 4.50982C22.276 3.29569 20.6857 2.52953 18.9796 2.33669C17.2734 2.14384 15.5523 2.53573 14.0978 3.44823C12.6433 4.36073 11.5415 5.73983 10.9727 7.35992C10.4039 8.98001 10.4017 10.7452 10.9666 12.3667L3.01692 20.3163Z" stroke="#404040" stroke-width="2.33333" stroke-linecap="round" stroke-linejoin="round"/>
<path d="M19.2498 9.33329C19.572 9.33329 19.8332 9.07213 19.8332 8.74996C19.8332 8.42779 19.572 8.16663 19.2498 8.16663C18.9277 8.16663 18.6665 8.42779 18.6665 8.74996C18.6665 9.07213 18.9277 9.33329 19.2498 9.33329Z" fill="black" stroke="#404040" stroke-width="2.33333" stroke-linecap="round" stroke-linejoin="round"/>
</svg>
