<svg width="28" height="28" viewBox="0 0 28 28" fill="none" xmlns="http://www.w3.org/2000/svg">
<path d="M14 19.8333C14.6443 19.8333 15.1666 19.311 15.1666 18.6667C15.1666 18.0223 14.6443 17.5 14 17.5C13.3556 17.5 12.8333 18.0223 12.8333 18.6667C12.8333 19.311 13.3556 19.8333 14 19.8333Z" stroke="#404040" stroke-width="2.33333" stroke-linecap="round" stroke-linejoin="round"/>
<path d="M22.1667 11.6666H5.83333C4.54467 11.6666 3.5 12.7113 3.5 14V23.3333C3.5 24.622 4.54467 25.6666 5.83333 25.6666H22.1667C23.4553 25.6666 24.5 24.622 24.5 23.3333V14C24.5 12.7113 23.4553 11.6666 22.1667 11.6666Z" stroke="#404040" stroke-width="2.33333" stroke-linecap="round" stroke-linejoin="round"/>
<path d="M8.16669 11.6667V8.16671C8.16669 6.61961 8.78127 5.13588 9.87523 4.04192C10.9692 2.94796 12.4529 2.33337 14 2.33337C15.5471 2.33337 17.0308 2.94796 18.1248 4.04192C19.2188 5.13588 19.8334 6.61961 19.8334 8.16671V11.6667" stroke="#404040" stroke-width="2.33333" stroke-linecap="round" stroke-linejoin="round"/>
</svg>
